<svg xmlns="http://www.w3.org/2000/svg" viewBox="0 0 16 16" shape-rendering="crispEdges">
  <!-- Background -->
  <rect width="16" height="16" fill="#0B1120"/>
  <!-- Headband -->
  <rect x="5" y="1" width="1" height="1" fill="#0066FF"/>
  <rect x="6" y="1" width="1" height="1" fill="#0066FF"/>
  <rect x="7" y="1" width="1" height="1" fill="#0066FF"/>
  <rect x="8" y="1" width="1" height="1" fill="#0066FF"/>
  <rect x="9" y="1" width="1" height="1" fill="#0066FF"/>
  <rect x="10" y="1" width="1" height="1" fill="#0066FF"/>
  <!-- Head -->
  <rect x="6" y="2" width="1" height="1" fill="#E2E8F0"/>
  <rect x="7" y="2" width="1" height="1" fill="#E2E8F0"/>
  <rect x="8" y="2" width="1" height="1" fill="#E2E8F0"/>
  <rect x="9" y="2" width="1" height="1" fill="#E2E8F0"/>
  <rect x="6" y="3" width="1" height="1" fill="#E2E8F0"/>
  <rect x="7" y="3" width="1" height="1" fill="#0F172A"/>
  <rect x="8" y="3" width="1" height="1" fill="#E2E8F0"/>
  <rect x="9" y="3" width="1" height="1" fill="#0F172A"/>
  <rect x="6" y="4" width="1" height="1" fill="#E2E8F0"/>
  <rect x="7" y="4" width="1" height="1" fill="#E2E8F0"/>
  <rect x="8" y="4" width="1" height="1" fill="#E2E8F0"/>
  <rect x="9" y="4" width="1" height="1" fill="#E2E8F0"/>
  <!-- Body -->
  <rect x="5" y="5" width="1" height="1" fill="#0F172A"/>
  <rect x="6" y="5" width="1" height="1" fill="#0F172A"/>
  <rect x="7" y="5" width="1" height="1" fill="#0F172A"/>
  <rect x="8" y="5" width="1" height="1" fill="#0F172A"/>
  <rect x="9" y="5" width="1" height="1" fill="#0F172A"/>
  <rect x="10" y="5" width="1" height="1" fill="#0F172A"/>
  <!-- Arms -->
  <rect x="4" y="6" width="1" height="1" fill="#E2E8F0"/>
  <rect x="6" y="6" width="1" height="1" fill="#0F172A"/>
  <rect x="7" y="6" width="1" height="1" fill="#0F172A"/>
  <rect x="8" y="6" width="1" height="1" fill="#0F172A"/>
  <rect x="9" y="6" width="1" height="1" fill="#0F172A"/>
  <rect x="11" y="6" width="1" height="1" fill="#E2E8F0"/>
  <rect x="3" y="7" width="1" height="1" fill="#E2E8F0"/>
  <rect x="7" y="7" width="1" height="1" fill="#0F172A"/>
  <rect x="8" y="7" width="1" height="1" fill="#0F172A"/>
  <rect x="12" y="7" width="1" height="1" fill="#E2E8F0"/>
  <!-- Legs -->
  <rect x="6" y="8" width="1" height="1" fill="#0F172A"/>
  <rect x="7" y="8" width="1" height="1" fill="#0F172A"/>
  <rect x="8" y="8" width="1" height="1" fill="#0F172A"/>
  <rect x="9" y="8" width="1" height="1" fill="#0F172A"/>
  <rect x="5" y="9" width="1" height="1" fill="#0F172A"/>
  <rect x="6" y="9" width="1" height="1" fill="#0F172A"/>
  <rect x="9" y="9" width="1" height="1" fill="#0F172A"/>
  <rect x="10" y="9" width="1" height="1" fill="#0F172A"/>
  <rect x="4" y="10" width="1" height="1" fill="#0F172A"/>
  <rect x="5" y="10" width="1" height="1" fill="#0F172A"/>
  <rect x="10" y="10" width="1" height="1" fill="#0F172A"/>
  <rect x="11" y="10" width="1" height="1" fill="#0F172A"/>
  <!-- Shoes -->
  <rect x="3" y="11" width="1" height="1" fill="#FF6B00"/>
  <rect x="4" y="11" width="1" height="1" fill="#FF6B00"/>
  <rect x="11" y="11" width="1" height="1" fill="#FF6B00"/>
  <rect x="12" y="11" width="1" height="1" fill="#FF6B00"/>
  <rect x="2" y="12" width="1" height="1" fill="#FF6B00"/>
  <rect x="3" y="12" width="1" height="1" fill="#FF6B00"/>
  <rect x="12" y="12" width="1" height="1" fill="#FF6B00"/>
  <rect x="13" y="12" width="1" height="1" fill="#FF6B00"/>
</svg>
